<?xml version="1.0" standalone="no"?>
<!DOCTYPE svg PUBLIC "-//W3C//DTD SVG 20010904//EN"
 "http://www.w3.org/TR/2001/REC-SVG-20010904/DTD/svg10.dtd">
<svg version="1.0" xmlns="http://www.w3.org/2000/svg"
 width="1920.000000pt" height="1080.000000pt" viewBox="0 0 1920.000000 1080.000000"
 preserveAspectRatio="xMidYMid meet">

<g transform="translate(0.000000,1080.000000) scale(0.100000,-0.100000)"
fill="#000000" stroke="none">
<path d="M0 6730 l0 -4070 323 0 c177 0 358 3 403 6 l81 7 9 861 c5 473 9
1039 10 1256 1 217 2 460 3 540 1 80 1 172 1 205 1 43 5 63 17 72 13 10 16 38
17 168 1 118 -2 155 -11 155 -18 0 -16 29 3 37 11 4 13 13 8 35 -3 17 -3 122
1 235 8 224 11 232 65 199 16 -9 40 -16 54 -16 25 0 26 -2 26 -59 0 -52 2 -59
22 -65 50 -13 86 -6 117 23 26 24 31 37 31 74 0 59 -10 84 -55 131 l-37 38
-109 -4 -109 -3 0 143 c0 105 3 144 13 146 6 3 36 7 65 10 l52 5 0 -32 c0 -59
10 -77 40 -77 22 0 32 7 44 32 19 38 19 38 4 38 -31 1 -46 45 -44 126 1 43 5
85 9 92 12 17 57 15 57 -3 0 -14 26 -20 78 -18 6 1 12 -9 12 -20 0 -20 0 -20
15 -1 14 18 14 18 15 0 0 -14 6 -17 25 -14 14 3 28 1 31 -3 3 -5 16 -9 30 -9
13 0 24 -5 24 -11 0 -7 12 -10 30 -7 24 4 30 1 30 -14 0 -24 -45 -25 -58 -1
-14 24 -110 25 -123 1 -6 -10 -17 -18 -24 -18 -8 0 -15 -4 -15 -9 0 -5 -11
-12 -25 -15 -24 -6 -35 -26 -14 -26 9 0 55 24 119 61 18 11 24 11 27 2 3 -7
11 -13 19 -13 8 0 22 -4 32 -9 9 -5 25 -12 35 -15 13 -4 17 -16 17 -51 l0 -45
58 0 c45 0 63 -5 76 -18 16 -18 13 -19 -75 -25 -51 -4 -95 -9 -98 -12 -3 -3 0
-14 7 -23 23 -33 25 -45 9 -57 -23 -16 -21 -25 3 -25 14 0 20 7 20 21 0 15 5
19 15 15 18 -7 20 5 3 22 -20 20 8 32 74 32 53 0 58 2 64 25 3 14 10 25 15 25
15 0 10 -50 -6 -66 -17 -17 -20 -54 -5 -54 6 0 10 6 10 14 0 21 27 40 34 24 3
-7 4 8 2 33 -4 38 -1 49 20 72 16 17 35 27 54 27 33 0 49 -16 23 -23 -10 -3 1
-5 25 -6 32 -1 42 3 42 15 0 9 -6 14 -13 11 -8 -3 -20 -1 -28 4 -10 6 -4 9 19
9 21 0 32 5 32 15 0 8 6 12 14 9 8 -3 12 -13 9 -25 -3 -10 -2 -19 1 -19 12 0
55 55 56 70 0 13 2 13 9 1 7 -11 14 -9 33 12 18 19 28 23 36 15 8 -8 34 -8
100 1 112 16 142 9 142 -30 0 -19 5 -29 14 -29 11 0 13 9 9 34 -4 28 -1 36 16
45 11 7 21 18 21 26 0 10 10 15 30 15 20 0 30 -5 30 -15 0 -25 30 -65 61 -81
23 -11 85 -14 326 -14 274 0 300 2 329 19 64 39 80 135 32 196 -11 14 -17 31
-15 38 3 6 6 4 6 -7 1 -14 6 -17 24 -12 12 3 32 6 45 6 13 0 22 6 22 15 0 8 9
15 19 15 10 0 33 14 51 30 31 29 35 30 132 30 l101 0 -7 -32 c-21 -99 -22 -95
20 -107 58 -16 62 -15 74 32 6 23 16 56 21 74 l10 32 132 3 132 3 3 40 c2 22
8 43 14 46 21 13 -4 29 -48 29 -51 0 -50 -19 -8 149 13 52 22 96 20 98 -2 2
-105 4 -230 6 -189 2 -228 5 -236 17 -6 9 -10 10 -10 3 0 -7 -18 -13 -42 -15
-36 -3 -43 -7 -48 -28 l-6 -25 -7 25 c-16 58 -1 108 33 113 28 4 40 18 40 44
0 16 7 27 20 30 11 3 20 13 20 22 0 10 11 28 25 41 14 13 23 30 20 38 -3 8 2
23 11 33 15 16 18 17 32 3 8 -8 29 -15 46 -14 17 1 40 2 51 1 17 -1 17 -3 5
-11 -13 -8 -13 -10 2 -10 10 0 22 9 28 20 21 40 85 20 103 -33 7 -19 34 -33
45 -23 3 4 0 12 -8 17 -12 8 -9 9 9 5 14 -3 31 0 38 6 9 7 14 6 19 -6 3 -9 15
-16 25 -16 13 0 19 -7 19 -21 0 -12 8 -23 20 -26 11 -3 20 -14 20 -24 0 -11 7
-19 16 -19 11 0 14 5 10 16 -5 14 -4 15 8 5 8 -7 13 -18 10 -25 -3 -8 4 -16
16 -19 17 -4 20 -10 14 -31 -4 -17 0 -35 10 -50 14 -22 14 -25 0 -30 -9 -3
-26 -6 -38 -6 -21 0 -24 -6 -29 -62 -3 -35 -3 -129 -1 -210 l5 -148 -76 0 -76
0 3 -47 3 -48 128 -3 127 -3 0 226 c0 143 4 225 10 225 14 0 12 27 -2 34 -9 3
-8 8 5 16 9 6 17 21 17 34 0 16 7 26 23 30 12 3 23 1 25 -4 2 -5 10 -6 18 -3
10 4 12 0 8 -11 -5 -12 0 -16 21 -16 18 0 25 4 22 13 -3 9 14 13 64 14 62 2
69 0 69 -18 0 -17 -7 -19 -65 -19 -63 0 -65 -1 -65 -25 0 -18 -5 -25 -20 -25
-25 0 -27 -20 -2 -21 14 0 14 -2 -3 -9 -33 -14 -45 -11 -45 10 0 14 -7 20 -21
20 -16 0 -20 -5 -16 -20 3 -13 0 -20 -9 -20 -17 0 -17 -1 1 -36 8 -16 15 -39
15 -51 0 -16 6 -23 20 -23 10 0 23 -8 29 -17 8 -15 12 -16 22 -6 25 25 29 12
29 -87 l0 -100 353 2 352 3 0 50 0 50 -243 3 c-188 2 -243 5 -239 15 3 9 62
13 223 17 l219 5 3 58 3 57 -171 0 c-143 0 -170 2 -170 15 0 12 30 15 188 17
l187 3 3 38 c3 37 4 38 42 35 29 -1 47 5 76 27 21 16 32 31 25 33 -6 2 -17 0
-24 -6 -7 -5 -21 -6 -32 -1 -11 4 -42 8 -70 8 -38 1 -46 4 -37 13 7 7 12 19
12 28 0 33 37 50 110 50 38 0 72 -5 75 -11 4 -5 12 -8 18 -6 7 2 17 -3 24 -12
11 -14 12 -13 13 8 0 16 4 21 14 18 17 -7 30 22 20 47 -4 11 -1 16 12 16 15 0
16 2 5 9 -8 5 -20 7 -28 4 -9 -4 -11 0 -7 11 3 9 11 16 18 15 30 -4 57 2 51
11 -4 6 -11 8 -16 5 -5 -4 -9 5 -9 19 0 16 6 26 15 26 8 0 15 -6 15 -14 0 -8
7 -17 16 -20 12 -4 14 -1 9 13 -4 14 0 23 15 31 34 18 60 43 60 57 0 18 -10
16 -26 -4 -12 -16 -13 -16 -14 9 0 14 -6 29 -12 31 -7 3 11 6 40 6 37 1 52 5
52 15 0 25 93 37 104 14 4 -10 8 -10 11 -2 7 13 46 6 58 -10 6 -8 10 -7 14 2
2 6 11 12 19 12 8 0 14 6 14 13 0 8 4 7 11 -3 9 -12 10 -11 6 6 -4 17 2 23 29
32 26 8 34 7 38 -4 3 -8 19 -14 38 -13 18 0 27 3 21 6 -7 2 -13 11 -13 19 0 8
-5 14 -11 14 -5 0 -8 4 -5 9 3 4 17 6 31 3 14 -2 25 0 25 6 0 5 20 13 45 16
25 4 45 11 45 17 0 5 7 9 15 9 8 0 15 6 15 13 0 6 9 23 20 37 14 17 20 41 20
78 0 51 0 52 -30 52 -23 0 -30 4 -30 20 0 38 30 60 82 60 26 0 50 5 53 10 3 6
17 10 31 10 33 0 30 20 -7 53 -32 28 -31 47 2 47 22 0 26 25 4 34 -8 3 -15 12
-15 21 0 8 7 15 15 15 8 0 15 6 15 13 0 9 10 12 30 9 25 -4 30 -1 30 17 0 15
4 19 17 14 12 -5 15 -2 11 14 -4 16 0 20 21 20 l26 0 -3 -106 -3 -106 -45 3
c-39 4 -44 2 -44 -17 0 -18 6 -21 45 -21 40 0 45 -2 45 -23 0 -12 9 -28 19
-34 11 -7 21 -23 23 -35 2 -19 11 -24 48 -28 l45 -5 3 -117 c3 -116 3 -118 26
-118 12 0 31 -9 41 -20 34 -38 45 -26 45 50 l0 70 48 -6 c26 -4 51 -11 57 -15
5 -5 54 -9 110 -9 133 1 143 8 146 110 3 94 -11 240 -22 240 -13 0 -11 257 1
265 6 3 10 1 10 -4 0 -6 21 -11 50 -11 l50 0 0 -84 c0 -76 2 -84 21 -89 20 -5
21 -3 17 109 l-3 114 77 0 76 0 7 108 c7 106 20 162 40 162 10 0 35 46 35 65
0 14 62 75 76 75 6 0 21 25 34 55 13 31 29 60 37 66 25 21 13 29 -42 29 -42 0
-55 3 -55 15 0 8 6 15 14 15 17 0 26 31 26 91 0 39 -4 49 -30 69 -16 12 -27
27 -24 31 3 5 59 9 125 9 l119 0 0 66 0 66 -70 -4 -70 -3 0 43 c0 31 -4 42
-15 42 -8 0 -15 7 -15 16 0 10 -6 14 -15 10 -10 -4 -15 1 -15 14 0 13 -7 20
-19 20 -13 0 -20 9 -24 30 -4 17 -13 30 -21 30 -21 0 -29 -17 -11 -24 18 -7
20 -36 3 -36 -23 -1 -68 -49 -68 -72 0 -18 2 -20 10 -8 11 18 23 8 14 -14 -5
-12 -19 -16 -59 -16 -30 0 -57 -4 -60 -10 -3 -5 -17 -10 -31 -10 -13 0 -24 -4
-24 -10 0 -5 -7 -10 -15 -10 -8 0 -15 7 -15 15 0 9 -9 15 -24 15 -40 0 -56
-11 -56 -36 0 -25 -15 -28 -37 -7 -19 17 -16 33 7 33 18 0 20 7 20 70 0 56 -3
70 -15 70 -8 0 -15 6 -15 13 0 19 37 50 49 42 6 -3 11 0 11 8 0 19 32 47 54
47 13 0 16 5 11 20 -5 15 -2 20 10 20 13 0 16 6 11 25 -5 20 -3 25 13 25 11 0
23 5 26 10 3 6 20 10 36 10 18 0 28 -4 24 -10 -3 -5 1 -10 9 -10 8 0 17 -9 21
-19 8 -26 58 -24 51 2 -3 14 3 17 35 17 28 0 39 -4 39 -15 0 -8 7 -15 15 -15
8 0 15 -7 15 -16 0 -12 7 -15 30 -12 28 4 30 3 30 -30 0 -26 3 -33 15 -28 10
4 15 -1 15 -15 0 -14 5 -19 14 -16 10 4 12 0 8 -15 -4 -18 -1 -20 21 -16 22 4
27 1 32 -23 5 -24 12 -29 36 -29 26 0 29 -4 29 -30 0 -20 5 -30 15 -30 8 0 15
-8 15 -18 0 -14 7 -17 45 -14 38 3 45 1 46 -14 1 -11 2 -30 2 -43 3 -37 27
-39 27 -2 l0 31 60 0 60 0 0 228 c0 216 1 230 20 247 19 17 20 17 20 1 0 -9 4
-14 10 -11 6 3 10 24 10 45 0 21 -4 42 -10 45 -6 3 -10 19 -10 36 0 22 5 29
20 29 19 0 20 -7 20 -95 l0 -95 35 0 35 0 0 -86 c0 -54 -5 -91 -12 -99 -33
-36 -38 -47 -48 -87 -5 -24 -10 -56 -10 -73 -1 -21 -10 -38 -30 -55 -17 -13
-30 -28 -30 -33 0 -5 -7 -15 -15 -23 -8 -9 -15 -33 -15 -55 0 -21 -4 -39 -10
-39 -5 0 -10 -16 -10 -35 0 -24 -5 -35 -15 -35 -21 0 -53 -34 -61 -65 -3 -14
-10 -25 -15 -25 -5 0 -9 -8 -9 -18 0 -10 -5 -23 -12 -30 -9 -9 -8 -12 5 -12
10 0 20 8 23 18 10 30 39 86 51 99 6 7 21 13 32 13 17 0 21 6 21 34 0 19 5 38
10 41 6 3 10 25 10 49 0 35 6 49 40 85 30 32 40 51 40 76 0 19 4 36 9 39 4 3
11 24 15 46 4 26 11 40 21 40 8 0 15 9 15 19 0 11 5 23 10 26 13 8 10 325 -2
325 -11 0 -10 156 1 178 44 87 52 114 49 169 -2 44 -7 58 -18 58 -11 0 -16
-15 -18 -65 -2 -36 -7 -69 -13 -75 -5 -5 -10 -20 -10 -35 -2 -35 -17 74 -18
133 -1 41 2 50 19 54 15 4 20 14 20 39 0 30 -3 33 -32 36 -25 2 -34 8 -36 25
l-3 23 -3860 0 -3859 0 0 -4070z m7710 3995 c4 -5 10 -22 14 -37 5 -23 3 -28
-13 -28 -20 0 -56 29 -47 38 3 2 12 -1 21 -8 12 -10 15 -10 15 3 0 8 -4 17 -9
19 -5 2 -7 17 -3 33 5 24 7 26 10 10 2 -11 8 -24 12 -30z m-43 -87 c-3 -8 -6
-5 -6 6 -1 11 2 17 5 13 3 -3 4 -12 1 -19z m4 -83 c5 4 9 -20 9 -55 0 -38 -4
-59 -10 -55 -5 3 -10 15 -10 27 0 11 -8 22 -20 25 -25 7 -27 51 -2 69 14 10
18 10 20 -2 2 -8 8 -12 13 -9z m-1681 -55 c-20 -13 -33 -13 -25 0 3 6 14 10
23 10 15 0 15 -2 2 -10z m431 -531 c26 -13 149 -20 149 -8 0 5 5 9 11 9 6 0 9
-7 5 -15 -3 -8 -1 -15 4 -15 6 0 10 -9 10 -19 0 -11 5 -21 12 -23 22 -8 -4
-30 -28 -24 -20 5 -26 1 -38 -29 -8 -19 -20 -35 -25 -35 -6 0 -17 -12 -25 -27
-11 -20 -15 -23 -16 -10 0 18 -20 25 -20 7 0 -5 -6 -10 -14 -10 -8 0 -17 -13
-21 -30 -7 -30 -12 -34 -37 -25 -18 7 -11 66 8 78 21 12 17 27 -6 27 -17 0
-20 -7 -20 -40 0 -33 -4 -42 -25 -52 -18 -8 -25 -19 -25 -40 0 -27 -2 -28 -44
-28 -41 0 -45 2 -51 30 -4 17 -11 30 -16 30 -5 0 -9 8 -9 18 0 22 32 62 49 62
6 0 11 5 11 10 0 6 7 10 15 10 9 0 15 9 15 23 1 30 49 85 60 67 6 -9 10 -7 15
9 3 11 13 21 22 21 10 0 14 6 10 20 -6 23 -3 24 24 9z m1169 -89 c0 -5 -4 -10
-10 -10 -5 0 -10 5 -10 10 0 6 5 10 10 10 6 0 10 -4 10 -10z m-510 -80 c0 -5
-7 -7 -15 -4 -8 4 -15 8 -15 10 0 2 7 4 15 4 8 0 15 -4 15 -10z m-40 -110 c0
-5 -7 -10 -16 -10 -8 0 -12 5 -9 10 3 6 10 10 16 10 5 0 9 -4 9 -10z m-150
-21 c0 -7 21 -10 58 -7 l57 3 0 -222 c0 -123 -3 -223 -7 -223 -4 0 -8 19 -10
43 -3 41 -4 42 -40 45 -29 2 -38 -1 -38 -12 0 -9 -6 -13 -14 -10 -8 3 -16 -2
-19 -13 -3 -10 -5 73 -6 184 -1 175 -3 202 -16 197 -9 -4 -15 0 -15 10 0 10 9
16 25 16 14 0 25 -5 25 -11z m-670 -9 c0 -5 -5 -10 -11 -10 -5 0 -7 5 -4 10 3
6 8 10 11 10 2 0 4 -4 4 -10z m125 0 c3 -5 1 -10 -4 -10 -6 0 -11 5 -11 10 0
6 2 10 4 10 3 0 8 -4 11 -10z m-1068 -72 c-3 -7 -5 -2 -5 12 0 14 2 19 5 13 2
-7 2 -19 0 -25z m553 -139 c0 -5 -4 -9 -10 -9 -5 0 -10 7 -10 16 0 8 5 12 10
9 6 -3 10 -10 10 -16z m-1003 5 c-3 -3 -12 -4 -19 -1 -8 3 -5 6 6 6 11 1 17
-2 13 -5z m830 0 c-3 -3 -12 -4 -19 -1 -8 3 -5 6 6 6 11 1 17 -2 13 -5z m-474
-104 c-4 -4 -19 -4 -33 1 l-25 7 28 1 c21 1 27 6 28 24 2 22 2 22 6 -2 3 -13
1 -27 -4 -31z m773 -160 c8 0 14 -7 14 -15 0 -8 5 -15 10 -15 6 0 10 7 10 15
0 8 9 15 20 15 11 0 20 -5 20 -11 0 -6 7 -9 14 -6 9 4 17 -2 21 -14 10 -30 35
-23 35 10 0 16 6 31 15 35 10 4 15 -1 15 -14 0 -27 26 -25 34 3 l7 22 9 -23
c10 -23 30 -22 30 1 0 7 10 12 23 12 21 0 22 -3 22 -105 0 -131 -6 -140 -99
-147 -46 -4 -66 -2 -66 6 0 6 7 11 15 11 8 0 15 7 15 15 0 8 -7 15 -15 15 -12
0 -13 9 -8 45 l6 45 -46 0 c-25 0 -52 3 -61 6 -10 4 -16 1 -16 -9 0 -8 6 -18
13 -20 6 -3 -11 -6 -39 -6 -51 -1 -51 -1 -67 41 -15 37 -15 43 -2 58 8 9 15
22 15 28 0 12 33 21 38 10 2 -4 10 -8 18 -8z m-606 -32 c0 -18 -2 -20 -9 -8
-6 8 -7 18 -5 22 9 14 14 9 14 -14z m-150 -31 c0 -20 0 -20 -22 -1 -13 10 -24
19 -26 20 -2 1 9 2 23 2 18 0 25 -6 25 -21z m105 13 c-3 -5 -11 -10 -16 -10
-6 0 -7 5 -4 10 3 6 11 10 16 10 6 0 7 -4 4 -10z m-34 -281 c-5 -13 -10 -19
-10 -12 -1 15 10 45 15 40 3 -2 0 -15 -5 -28z m-1793 -509 c20 -1 62 -34 62
-49 0 -6 5 -10 11 -8 6 1 18 -19 26 -45 9 -27 20 -48 24 -48 5 0 9 -4 9 -10 0
-5 -13 -10 -30 -10 -16 0 -30 4 -30 10 0 5 -7 7 -15 4 -11 -5 -13 -2 -9 10 4
11 1 16 -11 16 -12 0 -15 -5 -11 -16 4 -12 2 -15 -9 -10 -8 3 -15 1 -15 -4 0
-24 -38 -8 -50 20 -14 33 -44 55 -61 44 -6 -3 -8 -12 -5 -20 3 -8 2 -14 -3
-14 -5 0 -7 -11 -6 -25 4 -29 -24 -35 -45 -10 -7 9 -15 13 -18 11 -6 -6 -32
20 -32 31 0 13 65 74 76 72 20 -6 53 12 47 27 -5 12 7 19 30 15 4 0 7 3 7 8 0
12 34 19 38 9 2 -4 11 -8 20 -8z m3192 -130 c0 -47 -3 -60 -15 -60 -8 0 -15
-4 -15 -10 0 -6 -40 -10 -100 -10 -60 0 -100 4 -100 10 0 6 -11 10 -24 10 -13
0 -38 3 -55 6 -30 6 -32 9 -29 47 l3 41 95 -3 c52 -1 97 -7 98 -12 5 -12 32
-12 32 1 0 6 11 10 25 10 16 0 25 6 25 15 0 10 10 15 30 15 l30 0 0 -60z
m-2975 -20 c3 -6 -1 -13 -10 -16 -9 -4 -14 -12 -11 -19 3 -8 -2 -11 -15 -8
-22 6 -26 33 -4 33 8 0 15 5 15 10 0 13 17 13 25 0z m1862 -7 c-22 -4 -28 -9
-24 -23 3 -13 -1 -17 -19 -16 -14 0 -24 8 -26 21 -4 18 1 20 46 21 28 0 38 -1
23 -3z m753 -94 c0 -55 -1 -59 -16 -45 -8 9 -24 16 -35 16 -16 0 -19 7 -19 45
0 45 0 45 35 45 l35 0 0 -61z m-2480 37 c0 -3 -4 -8 -10 -11 -5 -3 -10 -1 -10
4 0 6 5 11 10 11 6 0 10 -2 10 -4z m1620 -74 c0 -4 -9 -13 -20 -20 -18 -11
-20 -10 -20 8 0 13 7 20 20 20 11 0 20 -3 20 -8z m-1660 -48 c0 -21 -5 -24
-33 -24 -47 0 -50 8 -19 40 30 31 52 24 52 -16z m-560 -9 c0 -8 9 -15 20 -15
11 0 20 -5 20 -11 0 -7 -9 -9 -22 -5 -13 3 -26 6 -30 6 -12 0 -9 40 2 40 6 0
10 -7 10 -15z m527 -51 c-3 -3 -12 -4 -19 -1 -8 3 -5 6 6 6 11 1 17 -2 13 -5z
m93 -184 c0 -5 -7 -7 -15 -4 -8 4 -15 8 -15 10 0 2 7 4 15 4 8 0 15 -4 15 -10z
m1218 -61 c-3 -8 -7 -3 -11 10 -4 17 -3 21 5 13 5 -5 8 -16 6 -23z m-178 -131
c0 -5 -18 -8 -40 -8 -22 0 -40 3 -40 8 0 4 18 7 40 7 22 0 40 -3 40 -7z
m-1263 -191 l-19 -73 -67 0 c-50 1 -72 6 -85 19 -21 21 -40 22 -32 2 4 -12 -4
-15 -46 -15 -70 0 -88 17 -88 87 l0 53 178 0 179 0 -20 -73z m793 64 c0 -19
-164 -29 -175 -11 -3 6 -17 10 -30 10 -13 0 -27 -4 -30 -10 -9 -15 -25 -12
-25 5 0 13 21 15 130 15 72 0 130 -4 130 -9z m-1163 -73 c-3 -8 -6 -5 -6 6 -1
11 2 17 5 13 3 -3 4 -12 1 -19z m983 -83 c0 -8 -4 -15 -10 -15 -5 0 -10 7 -10
15 0 8 5 15 10 15 6 0 10 -7 10 -15z m70 0 c0 -9 -9 -15 -25 -15 -26 0 -34 15
-12 23 23 10 37 7 37 -8z m-1330 -140 c0 -9 7 -18 15 -21 8 -4 15 -10 15 -15
0 -5 -12 -4 -26 1 -14 6 -43 10 -64 10 -33 0 -38 3 -33 18 6 15 5 15 -10 3
-10 -7 -17 -9 -17 -3 0 15 19 20 73 21 36 1 47 -3 47 -14z m-1990 -159 c0 -25
-4 -48 -10 -51 -6 -4 -10 13 -10 44 0 28 5 51 10 51 6 0 10 -20 10 -44z m1959
11 c6 -8 8 -17 4 -20 -3 -4 -127 -7 -276 -7 -210 0 -268 3 -265 13 7 18 72 24
309 25 170 2 219 -1 228 -11z m-1461 -119 c9 0 23 -1 30 -1 7 1 12 -12 12 -33
l0 -34 -60 0 -60 0 0 34 c0 19 -3 41 -6 49 -4 12 3 16 28 19 25 2 34 -1 36
-14 2 -10 11 -19 20 -20z m242 8 c0 -3 -4 -8 -10 -11 -5 -3 -10 -1 -10 4 0 6
5 11 10 11 6 0 10 -2 10 -4z m-30 -37 c0 -5 -4 -9 -10 -9 -5 0 -10 7 -10 16 0
8 5 12 10 9 6 -3 10 -10 10 -16z m-90 -19 c0 -16 -24 -50 -36 -50 -2 0 -4 18
-4 39 0 34 3 38 20 34 11 -3 20 -13 20 -23z m-1143 -41 c34 -13 43 -26 43 -63
0 -37 -25 -66 -57 -66 -32 0 -28 34 5 38 26 4 31 46 6 56 -30 12 -150 6 -169
-8 -25 -18 -13 -42 24 -49 41 -9 42 -37 1 -37 -36 0 -70 31 -70 63 0 31 25 65
53 70 45 9 136 7 164 -4z m43 -282 c0 -60 -22 -87 -69 -87 -21 0 -44 6 -50 14
-10 12 -21 11 -72 -6 -33 -11 -63 -18 -66 -15 -14 15 9 34 61 50 78 25 76 47
-4 47 -43 0 -60 4 -60 13 0 25 12 27 137 27 l123 0 0 -43z m0 -257 c0 -38 -4
-50 -15 -50 -10 0 -15 10 -15 30 0 28 -2 30 -39 30 -32 0 -40 -4 -43 -20 -2
-12 -7 -21 -13 -21 -5 0 -11 9 -13 21 -3 17 -11 20 -48 20 -42 0 -44 -1 -44
-30 0 -20 -5 -30 -15 -30 -11 0 -15 12 -15 50 l0 50 130 0 130 0 0 -50z m-2
-167 c-2 -14 -20 -21 -73 -29 -39 -7 -72 -13 -75 -14 -3 -1 29 -8 70 -14 65
-9 75 -14 78 -32 3 -20 -3 -23 -58 -29 -112 -13 -123 -21 -41 -29 89 -9 101
-13 101 -36 0 -17 -5 -17 -77 -3 -177 32 -184 34 -181 51 2 13 26 21 93 33 50
9 77 17 61 18 -16 1 -58 6 -93 12 -50 9 -63 15 -63 29 0 15 17 21 98 35 53 9
102 18 107 20 6 2 20 4 33 4 17 1 23 -4 20 -16z m2 -502 c0 -42 -4 -53 -27
-70 -28 -23 -59 -20 -79 5 -9 12 -14 11 -29 -6 -23 -25 -66 -26 -95 -2 -16 13
-24 32 -28 70 l-5 52 132 0 131 0 0 -49z m0 -244 c0 -60 -22 -87 -69 -87 -21
0 -44 6 -50 14 -10 12 -21 11 -72 -6 -33 -11 -63 -18 -66 -15 -15 15 11 37 61
51 79 23 76 46 -4 46 -43 0 -60 4 -60 13 0 25 12 27 137 27 l123 0 0 -43z m0
-257 c0 -38 -4 -50 -15 -50 -10 0 -15 10 -15 30 0 28 -2 30 -40 30 -33 0 -40
-3 -40 -20 0 -11 -7 -20 -15 -20 -8 0 -15 9 -15 20 0 17 -7 20 -45 20 -43 0
-45 -1 -45 -30 0 -20 -5 -30 -15 -30 -11 0 -15 12 -15 50 l0 50 130 0 130 0 0
-50z m0 -180 c0 -19 -7 -20 -130 -20 -102 0 -130 3 -130 13 0 25 12 27 137 27
116 0 123 -1 123 -20z m0 -200 c0 -38 -4 -50 -15 -50 -10 0 -15 10 -15 33 0
32 -1 32 -40 29 -31 -3 -40 -8 -40 -23 0 -10 -7 -19 -15 -19 -9 0 -15 9 -15
23 0 20 -5 22 -57 22 -47 0 -58 3 -61 18 -3 15 8 17 127 17 l131 0 0 -50z m0
-170 c0 -19 -7 -20 -130 -20 -102 0 -130 3 -130 13 0 25 12 27 137 27 116 0
123 -1 123 -20z m0 -164 c0 -8 -30 -26 -72 -43 l-73 -28 73 -3 c64 -3 72 -5
72 -23 0 -19 -6 -19 -127 -17 -85 2 -128 7 -130 15 -2 6 28 23 72 40 l77 28
-73 5 c-60 4 -74 8 -77 23 -3 15 8 17 127 17 106 0 131 -3 131 -14z m-22 -252
c31 -21 31 -87 0 -108 -31 -22 -58 -20 -58 3 0 13 8 21 23 23 16 2 22 10 22
27 0 20 -7 27 -35 34 -66 17 -160 -2 -160 -33 0 -14 18 -29 43 -35 23 -6 27
-4 27 14 0 12 6 21 15 21 10 0 15 -11 15 -35 l0 -35 -65 0 c-60 0 -80 9 -54
26 8 4 8 9 0 17 -17 17 -13 55 9 77 17 17 33 20 108 20 63 0 94 -4 110 -16z"/>
<path d="M6940 9545 c0 -16 6 -25 15 -25 9 0 15 9 15 25 0 16 -6 25 -15 25 -9
0 -15 -9 -15 -25z"/>
<path d="M6940 9342 c0 -10 7 -19 15 -19 8 0 15 9 15 19 0 10 -7 18 -15 18 -8
0 -15 -8 -15 -18z"/>
<path d="M400 6506 c0 -14 26 -46 36 -46 18 0 44 24 44 40 0 17 -7 20 -40 20
-28 0 -40 -4 -40 -14z"/>
<path d="M280 5581 c0 -26 24 -43 57 -39 22 2 29 9 31 31 3 26 2 27 -42 27
-38 0 -46 -3 -46 -19z"/>
<path d="M400 5581 c0 -48 73 -56 78 -8 3 26 1 27 -37 27 -33 0 -41 -3 -41
-19z"/>
<path d="M400 5338 c0 -26 18 -40 46 -36 21 2 30 9 32 26 3 20 -1 22 -37 22
-26 0 -41 -5 -41 -12z"/>
<path d="M9950 5400 l0 -5400 4625 0 4625 0 0 5400 0 5400 -4625 0 -4625 0 0
-5400z m4760 1040 l0 -50 105 0 105 0 0 -60 0 -60 -290 0 -290 0 0 60 0 60
110 0 110 0 0 50 0 50 75 0 75 0 0 -50z m1060 -10 l0 -60 105 0 105 0 0 -65 0
-65 -290 0 -290 0 0 65 0 65 105 0 105 0 0 53 c0 30 3 57 7 60 3 4 39 7 80 7
l73 0 0 -60z m-580 -95 l0 -125 70 0 70 0 0 -65 0 -65 -70 0 -70 0 0 -125 0
-125 -75 0 -75 0 0 315 0 315 75 0 75 0 0 -125z m1040 -385 l0 -510 -75 0 -75
0 0 50 0 51 -32 -18 c-29 -16 -69 -18 -345 -21 l-313 -3 0 65 0 66 115 0 115
0 0 54 c0 52 -1 55 -29 61 -52 11 -107 60 -136 119 -95 195 100 389 326 323
108 -32 169 -111 169 -222 0 -101 -57 -186 -144 -215 -36 -11 -36 -12 -36 -67
l0 -55 123 4 c81 2 132 8 152 18 l30 15 3 398 2 397 75 0 75 0 0 -510z m2330
0 l0 -510 -70 0 -70 0 0 245 0 245 -40 0 -40 0 0 -240 0 -240 -75 0 -75 0 0
500 0 500 75 0 75 0 0 -190 0 -190 40 0 40 0 0 195 0 195 70 0 70 0 0 -510z
m-4687 417 c8 -121 37 -189 111 -263 47 -46 79 -68 138 -92 42 -18 84 -32 92
-32 13 0 16 -13 16 -70 l0 -69 -32 6 c-63 11 -204 69 -260 106 -31 21 -75 58
-98 83 l-41 45 -67 -63 c-92 -86 -202 -141 -344 -172 l-28 -6 0 69 0 69 34 6
c67 13 173 74 225 131 62 68 90 142 98 252 l6 83 72 0 72 0 6 -83z m3338 -7
c15 -196 101 -301 304 -370 l50 -17 3 -66 c2 -37 0 -67 -4 -67 -3 0 -34 7 -67
16 -124 32 -244 99 -322 181 l-42 44 -60 -59 c-69 -68 -185 -131 -293 -161
-41 -12 -76 -21 -77 -21 -2 0 -3 31 -3 68 l0 68 60 18 c174 52 279 181 287
351 3 44 6 86 9 93 3 9 24 12 76 10 l73 -3 6 -85z m896 -167 c-5 -275 -13
-324 -73 -445 -57 -114 -183 -217 -296 -244 l-28 -6 0 70 0 70 53 30 c141 79
197 223 197 503 l0 139 -120 0 -120 0 0 58 c0 32 3 62 7 65 3 4 92 7 196 7
l189 0 -5 -247z m-7272 196 c63 -18 118 -62 150 -121 26 -46 30 -63 30 -133 0
-58 -5 -90 -19 -118 -10 -21 -75 -103 -145 -184 -69 -80 -134 -156 -144 -169
l-19 -24 171 0 171 0 0 -65 0 -65 -275 0 -275 0 0 61 0 60 171 197 c94 108
179 214 190 234 54 105 -15 223 -118 203 -56 -10 -85 -43 -91 -103 l-5 -52
-78 0 -79 0 0 48 c0 94 72 193 165 226 49 18 146 20 200 5z m691 -17 c87 -45
137 -137 156 -291 11 -92 5 -269 -12 -345 -36 -159 -129 -239 -280 -239 -177
0 -265 101 -291 331 -19 166 6 363 57 449 28 48 77 89 131 109 56 21 187 13
239 -14z m615 13 c105 -37 160 -115 167 -236 4 -70 2 -84 -22 -131 -14 -29
-88 -125 -165 -213 l-140 -160 170 -3 169 -2 0 -65 0 -65 -275 0 -275 0 0 59
0 59 171 198 c94 109 180 211 190 228 25 41 25 121 0 162 -41 67 -151 67 -191
1 -11 -18 -20 -49 -20 -69 l0 -38 -81 0 -82 0 6 57 c8 79 43 141 101 181 27
17 62 36 80 41 49 15 150 12 197 -4z m673 -10 c50 -24 102 -78 117 -122 6 -19
9 -65 7 -103 -3 -55 -9 -74 -32 -104 -16 -21 -42 -46 -58 -56 l-29 -18 26 -6
c41 -10 100 -77 115 -129 27 -98 -4 -215 -72 -272 -88 -74 -244 -91 -355 -38
-81 38 -143 136 -143 225 l0 28 79 0 78 0 7 -40 c10 -62 51 -102 112 -107 91
-9 144 43 144 139 0 89 -59 138 -165 138 l-55 0 0 65 0 65 65 0 c56 0 69 3 95
28 39 34 50 94 26 140 -45 87 -176 74 -195 -18 l-7 -35 -77 -3 -77 -3 0 36 c0
90 68 173 170 206 43 14 181 4 224 -16z m1974 -179 c72 -37 107 -90 107 -166
0 -78 -34 -128 -112 -167 -51 -24 -69 -28 -148 -28 -79 0 -97 4 -148 28 -78
39 -112 89 -112 167 0 72 35 129 98 161 62 33 93 39 182 35 63 -3 92 -9 133
-30z m-918 -431 l0 -145 190 0 190 0 0 -70 0 -70 -452 2 -453 3 0 65 0 65 188
3 187 2 0 145 0 145 75 0 75 0 0 -145z m3338 -2 l3 -143 184 0 185 0 0 -70 0
-70 -450 0 -450 0 0 70 0 70 185 0 185 0 0 138 c0 76 3 142 7 146 4 4 39 5 78
4 l70 -3 3 -142z m-2018 -163 l0 -180 -75 0 -75 0 0 115 0 115 -310 0 -310 0
0 65 0 65 385 0 385 0 0 -180z m3120 -656 c0 -22 4 -24 51 -24 31 0 48 -4 44
-10 -3 -6 -52 -10 -111 -10 -63 0 -104 4 -104 10 0 6 20 10 45 10 40 0 45 2
45 23 0 13 3 27 6 30 12 11 24 -3 24 -29z m-2240 6 c0 -6 -28 -10 -64 -10 -36
0 -68 -4 -71 -10 -11 -17 42 -59 89 -72 47 -13 61 -28 26 -28 -26 0 -89 26
-112 47 -16 14 -19 14 -34 -1 -21 -22 -80 -46 -110 -46 -39 0 -27 17 16 24 45
7 107 56 96 74 -4 7 -34 12 -72 12 -41 0 -63 4 -59 10 4 6 65 10 151 10 89 0
144 -4 144 -10z m296 -5 c8 -21 -5 -105 -17 -105 -5 0 -9 20 -9 45 l0 45 -85
0 c-69 0 -85 3 -85 15 0 22 188 22 196 0z m114 -130 c0 -122 -2 -145 -15 -145
-9 0 -15 9 -15 25 0 23 -4 25 -45 25 -25 0 -45 5 -45 10 0 6 20 10 45 10 l45
0 0 110 c0 91 3 110 15 110 13 0 15 -23 15 -145z m400 135 c0 -5 -57 -11 -137
-12 l-138 -3 -3 -32 -3 -32 135 -3 c82 -2 136 -7 136 -13 0 -6 -54 -11 -136
-13 l-135 -3 3 -32 3 -32 143 -3 c197 -4 186 -22 -13 -22 l-155 0 0 105 0 105
150 0 c90 0 150 -4 150 -10z m295 -5 c0 -5 -22 -11 -49 -13 l-49 -3 6 -94 c7
-109 22 -151 66 -188 18 -15 31 -32 29 -38 -5 -15 -65 36 -88 74 l-18 28 -22
-35 c-23 -39 -56 -66 -78 -66 -8 0 3 17 25 38 48 47 63 95 63 201 l0 81 -45 0
c-34 0 -45 4 -45 15 0 13 16 15 103 13 59 -2 102 -7 102 -13z m105 -70 l0 -85
30 0 c17 0 30 -4 30 -10 0 -5 -13 -10 -30 -10 l-29 0 -3 -97 c-2 -66 -7 -98
-15 -101 -10 -3 -13 40 -13 192 0 168 2 196 15 196 12 0 15 -16 15 -85z m263
59 c21 -21 33 -25 74 -22 41 3 48 6 51 26 2 12 8 22 13 22 5 0 9 -58 9 -135 0
-78 -4 -135 -9 -135 -6 0 -11 24 -13 53 l-3 52 -48 3 c-41 3 -52 -1 -72 -22
-31 -34 -89 -38 -132 -10 -48 31 -49 145 0 179 35 25 100 19 130 -11z m555 2
c8 -37 -9 -166 -21 -166 -9 0 -11 23 -9 80 l4 79 -138 3 c-100 2 -138 6 -142
16 -3 10 29 12 149 10 142 -3 154 -4 157 -22z m402 -172 c0 -152 -3 -195 -12
-192 -7 3 -14 14 -16 26 -3 18 -7 20 -28 12 -34 -13 -264 -13 -264 0 0 6 23
10 50 10 l50 0 0 40 c0 31 -4 40 -17 40 -43 0 -76 65 -57 115 9 23 57 45 99
45 96 0 118 -126 28 -161 -18 -7 -23 -16 -23 -44 l0 -35 54 0 c30 0 66 4 80
10 l26 10 0 160 c0 136 2 160 15 160 13 0 15 -28 15 -196z m-2090 37 c0 -10
-58 -21 -112 -21 -38 0 -38 0 -38 -40 0 -22 -4 -40 -10 -40 -5 0 -10 18 -10
40 l0 40 -45 0 c-25 0 -45 4 -45 10 0 5 44 11 98 13 53 1 112 4 130 5 17 1 32
-2 32 -7z m-315 -41 c-4 -6 -73 -10 -176 -10 -106 0 -169 4 -169 10 0 6 65 10
176 10 114 0 173 -3 169 -10z m2025 -50 c0 -6 -33 -10 -80 -10 l-80 0 0 -65
c0 -51 -3 -65 -15 -65 -12 0 -15 14 -15 65 l0 65 -80 0 c-47 0 -80 4 -80 10 0
6 65 10 175 10 110 0 175 -4 175 -10z m-2071 -38 c34 -25 33 -59 -2 -86 -24
-18 -42 -21 -120 -21 -112 0 -151 15 -155 61 -2 17 3 36 10 41 45 37 220 41
267 5z m1381 -32 l0 -50 135 0 c86 0 135 -4 135 -10 0 -7 -51 -10 -147 -8
l-148 3 -3 58 c-2 46 0 57 13 57 11 0 15 -12 15 -50z m-1212 -8 l3 -42 130 0
c79 0 129 -4 129 -10 0 -6 -55 -10 -145 -10 l-145 0 0 56 c0 67 23 72 28 6z
m682 38 c0 -6 -33 -10 -80 -10 l-80 0 0 -45 c0 -25 -4 -45 -10 -45 -5 0 -10
20 -10 45 l0 45 -80 0 c-47 0 -80 4 -80 10 0 6 63 10 170 10 107 0 170 -4 170
-10z m243 -3595 l37 -26 0 -174 c0 -106 -4 -176 -10 -180 -10 -6 -68 29 -82
50 -9 12 -11 317 -2 339 8 21 13 20 57 -9z m745 -67 c-3 -7 -18 -15 -34 -17
l-29 -4 29 -6 c16 -3 31 -12 34 -20 3 -10 -5 -12 -39 -7 -61 9 -87 9 -136 1
-36 -6 -43 -5 -43 9 0 11 10 16 33 18 l32 1 -32 4 c-20 3 -33 10 -33 19 0 11
21 14 111 14 84 0 110 -3 107 -12z m208 -22 c-4 -20 -2 -37 4 -41 21 -13 9
-25 -25 -25 -29 0 -37 -5 -45 -26 -12 -30 -36 -27 -32 4 3 19 -2 22 -33 22
-25 0 -35 4 -33 13 3 7 28 13 66 15 53 3 62 6 62 22 0 16 -9 19 -57 22 -34 2
-58 8 -61 16 -3 9 17 12 78 12 l82 0 -6 -34z m62 -38 l-3 -73 -34 0 c-19 0
-36 6 -38 13 -3 7 5 12 21 12 25 0 26 2 26 60 0 47 3 60 15 60 13 0 15 -13 13
-72z m252 57 c0 -12 -18 -15 -100 -15 -82 0 -100 3 -100 15 0 12 18 15 100 15
82 0 100 -3 100 -15z m210 0 c0 -10 -10 -15 -30 -15 -16 0 -30 -5 -30 -12 0
-16 31 -48 47 -48 7 0 13 -7 13 -15 0 -21 -23 -19 -54 6 l-26 20 -26 -20 c-31
-25 -54 -27 -54 -6 0 8 5 15 12 15 16 0 48 31 48 47 0 8 -12 13 -30 13 -20 0
-30 5 -30 15 0 12 16 15 80 15 64 0 80 -3 80 -15z m80 5 c0 -6 -7 -13 -15 -16
-12 -5 -15 -25 -15 -90 0 -68 -3 -84 -15 -84 -12 0 -15 18 -15 100 l0 100 30
0 c17 0 30 -5 30 -10z m-300 -45 c0 -12 -16 -15 -80 -15 -47 0 -80 -4 -80 -10
0 -6 35 -10 85 -10 50 0 85 -4 85 -10 0 -6 -40 -10 -100 -10 l-100 0 0 35 0
35 95 0 c78 0 95 -3 95 -15z m-1090 -195 c0 -142 -3 -200 -11 -200 -7 0 -27 9
-45 21 l-34 21 0 158 0 158 33 21 c58 37 57 40 57 -179z m590 150 c0 -6 -47
-10 -120 -10 -73 0 -120 4 -120 10 0 6 47 10 120 10 73 0 120 -4 120 -10z m70
-50 c0 -17 9 -20 92 -22 62 -2 93 -7 96 -15 3 -10 -23 -13 -107 -13 l-111 0 0
33 c0 19 3 37 6 40 11 10 24 -3 24 -23z m-87 -1 c6 -9 7 -24 4 -33 -5 -13 -23
-16 -111 -16 -97 0 -105 2 -111 20 -13 41 10 51 113 48 74 -2 97 -7 105 -19z
m537 6 c0 -11 -12 -15 -46 -15 -37 0 -47 -4 -51 -20 -7 -26 -33 -26 -33 -1 0
17 -8 20 -47 23 -26 2 -48 9 -51 16 -3 9 24 12 112 12 96 0 116 -3 116 -15z
m-1372 -113 l3 -111 -40 -27 c-22 -14 -45 -23 -50 -19 -7 4 -11 49 -11 115 l0
109 37 26 c21 14 42 24 48 22 6 -2 11 -51 13 -115z m375 -40 c14 -12 17 -32
17 -108 0 -91 -1 -93 -29 -113 -58 -41 -61 -35 -61 112 0 74 3 137 6 140 8 7
41 -8 67 -31z m370 11 c23 -22 22 -78 -3 -103 -30 -30 -83 -27 -109 6 -33 42
-24 84 24 112 23 14 63 7 88 -15z m507 17 c0 -5 16 -10 35 -10 24 0 35 -5 35
-15 0 -8 -4 -15 -8 -15 -4 0 -6 -16 -4 -35 4 -29 -1 -40 -28 -65 l-32 -30 46
0 45 0 3 87 c2 58 7 88 16 91 9 3 12 -22 12 -102 l0 -106 -116 0 c-88 0 -115
3 -112 13 3 6 21 13 41 15 20 2 37 5 37 7 0 2 -14 17 -31 34 -25 26 -29 36
-24 61 4 19 3 30 -4 30 -6 0 -11 7 -11 15 0 10 11 15 35 15 19 0 35 5 35 10 0
6 7 10 15 10 8 0 15 -4 15 -10z m-410 -70 c0 -56 -3 -70 -15 -70 -10 0 -15 11
-15 35 0 24 -5 35 -15 35 -21 0 -19 30 3 31 16 1 16 2 0 6 -31 8 -21 33 12 33
l30 0 0 -70z m256 53 c-17 -57 -17 -70 -2 -76 33 -13 14 -27 -34 -27 l-50 0 0
-40 c0 -54 -27 -56 -32 -2 -3 37 -3 37 -50 40 -34 2 -48 7 -48 18 0 11 18 14
85 14 47 0 85 3 85 8 0 4 3 17 6 30 6 22 5 22 -80 22 -70 0 -86 3 -86 15 0 12
18 15 106 15 96 0 105 -2 100 -17z m-446 -138 c0 -12 17 -15 95 -15 78 0 95
-3 95 -15 0 -12 -19 -15 -110 -15 -109 0 -110 0 -110 23 0 13 3 27 7 30 11 12
23 8 23 -8z"/>
<path d="M15618 6041 c-28 -25 -33 -36 -33 -76 0 -40 5 -51 33 -76 69 -62 182
-22 182 65 0 73 -42 116 -114 116 -25 0 -45 -9 -68 -29z"/>
<path d="M11345 6260 c-29 -12 -61 -50 -74 -90 -18 -52 -25 -282 -12 -373 13
-93 31 -131 71 -152 41 -21 102 -19 133 5 51 40 62 95 62 305 0 174 -2 194
-22 238 -30 65 -96 93 -158 67z"/>
<path d="M14570 6093 c-70 -36 -60 -110 19 -134 111 -33 212 63 130 124 -38
28 -106 32 -149 10z"/>
<path d="M17420 4918 c-14 -15 -20 -35 -20 -65 0 -54 26 -83 73 -83 47 0 72
30 72 85 0 28 -7 50 -19 64 -26 28 -79 28 -106 -1z"/>
<path d="M17570 4855 l0 -35 50 0 50 0 0 35 0 35 -50 0 -50 0 0 -35z"/>
<path d="M18245 4815 c-30 -29 -31 -45 -7 -75 25 -31 88 -32 113 -1 25 31 24
56 -3 81 -30 27 -73 26 -103 -5z"/>
<path d="M15846 4671 c-34 -7 -55 -24 -56 -43 0 -4 12 -16 27 -25 33 -22 175
-25 211 -5 27 16 29 48 2 62 -27 14 -136 21 -184 11z"/>
<path d="M17733 853 c26 -2 67 -2 90 0 23 2 2 3 -48 3 -49 0 -68 -1 -42 -3z"/>
<path d="M17707 712 c-32 -35 -14 -72 34 -72 41 0 56 60 20 80 -27 14 -35 13
-54 -8z"/>
<path d="M18264 702 c-22 -15 -24 -42 -4 -62 24 -24 34 -25 54 -4 38 38 -6 97
-50 66z"/>
<path d="M7833 10775 c-8 -22 6 -33 17 -15 13 20 12 30 0 30 -6 0 -13 -7 -17
-15z"/>
<path d="M7801 10754 c0 -11 3 -14 6 -6 3 7 2 16 -1 19 -3 4 -6 -2 -5 -13z"/>
<path d="M7850 10667 c0 -20 4 -37 10 -37 5 0 7 14 3 33 -8 45 -13 47 -13 4z"/>
<path d="M7015 9970 c10 -11 13 -20 7 -20 -7 0 -6 -8 1 -25 16 -34 27 -31 27
6 0 31 -19 59 -41 59 -8 0 -5 -7 6 -20z"/>
<path d="M7420 9685 c0 -8 5 -15 10 -15 6 0 10 7 10 15 0 8 -4 15 -10 15 -5 0
-10 -7 -10 -15z"/>
<path d="M7400 9580 c0 -5 18 -10 40 -10 22 0 40 5 40 10 0 6 -18 10 -40 10
-22 0 -40 -4 -40 -10z"/>
<path d="M7420 9530 c-24 -8 -23 -8 8 -9 20 -1 31 3 27 9 -3 6 -7 10 -8 9 -1
-1 -13 -5 -27 -9z"/>
<path d="M6982 8798 c6 -18 28 -21 28 -4 0 9 -7 16 -16 16 -9 0 -14 -5 -12
-12z"/>
<path d="M6983 8723 c-8 -3 -13 -24 -13 -54 0 -37 -4 -49 -15 -49 -21 0 -53
-34 -61 -64 -3 -14 -12 -27 -19 -30 -7 -2 -16 -18 -20 -35 -4 -17 -10 -31 -15
-31 -4 0 -11 -26 -14 -57 -4 -32 -9 -66 -12 -75 -3 -10 -1 -18 5 -18 6 0 11
12 11 27 0 51 44 162 80 201 12 12 19 26 16 31 -7 11 13 27 45 34 25 6 26 9
21 57 -3 33 -1 50 7 50 6 0 11 5 11 10 0 11 -7 12 -27 3z"/>
<path d="M5940 8370 c0 -13 7 -20 20 -20 13 0 20 7 20 20 0 13 -7 20 -20 20
-13 0 -20 -7 -20 -20z"/>
<path d="M6033 8305 c-7 -8 -13 -30 -13 -50 l0 -35 -50 0 c-38 0 -50 -4 -50
-15 0 -12 13 -15 60 -15 l60 0 0 49 c0 28 5 53 10 56 12 7 13 25 3 25 -5 -1
-14 -7 -20 -15z"/>
<path d="M5292 7953 c-15 -16 -20 -29 -14 -35 10 -10 26 6 36 40 9 27 7 27
-22 -5z"/>
<path d="M4933 7652 c-47 -3 -59 -22 -15 -23 15 0 48 -1 75 -2 27 -1 46 2 44
8 -5 13 -52 21 -104 17z"/>
<path d="M7910 7566 l0 -36 -120 0 c-118 0 -120 0 -126 -24 -3 -13 -4 -37 -2
-52 3 -26 7 -29 46 -32 37 -3 42 -6 36 -20 -42 -101 -43 -174 -1 -245 33 -55
62 -82 120 -107 32 -14 47 -27 47 -40 0 -18 -9 -20 -127 -22 l-128 -3 -3 -52
-3 -53 385 0 386 0 0 350 0 350 -50 0 -50 0 0 -295 0 -295 -155 0 c-148 0
-155 1 -155 20 0 14 14 26 50 41 125 54 186 210 127 328 -9 19 -17 35 -17 37
0 2 19 4 43 6 l42 3 0 50 0 50 -117 3 -117 3 -3 32 c-3 31 -4 32 -55 35 l-53
3 0 -35z m126 -171 c61 -40 82 -130 44 -192 -55 -90 -200 -82 -245 14 -59 124
86 254 201 178z"/>
<path d="M6035 7578 c-32 -11 -92 -52 -113 -78 -39 -47 -56 -97 -56 -165 -1
-84 21 -132 84 -189 54 -49 97 -66 161 -66 82 0 128 19 186 76 87 86 103 186
47 295 -54 108 -196 166 -309 127z m163 -118 c45 -28 72 -76 72 -131 0 -112
-120 -184 -220 -130 -138 73 -87 281 70 281 27 0 58 -8 78 -20z"/>
<path d="M4993 7563 c-27 -5 -34 -26 -25 -77 l7 -40 102 3 102 3 -8 -29 c-24
-82 -83 -144 -157 -162 -23 -6 -45 -14 -47 -18 -2 -5 0 -28 5 -52 l10 -43 41
6 c59 10 134 54 175 103 l36 42 45 -47 c49 -51 112 -86 173 -97 33 -6 38 -5
43 16 15 67 13 70 -45 90 -78 28 -127 80 -151 161 l-8 28 105 0 104 0 0 48 0
49 -214 6 c-118 4 -227 9 -243 11 -15 2 -38 2 -50 -1z"/>
<path d="M5566 7562 c-3 -5 -2 -162 1 -351 l6 -342 46 3 46 3 3 298 2 297 55
0 55 0 0 50 0 50 -104 0 c-58 0 -107 -4 -110 -8z"/>
<path d="M6420 7521 c0 -46 1 -49 31 -55 17 -3 42 -6 55 -6 17 0 24 -6 24 -20
0 -18 -7 -20 -55 -20 l-55 0 0 -50 0 -50 55 0 55 0 0 -120 0 -120 55 0 55 0 0
245 0 245 -110 0 -110 0 0 -49z"/>
<path d="M6801 7562 c-16 -5 -15 -102 2 -103 6 0 137 0 290 1 266 1 279 1 273
-17 -3 -10 -13 -49 -21 -88 -9 -38 -18 -78 -21 -87 -5 -16 -29 -18 -282 -20
l-277 -3 -3 -52 -3 -53 165 0 166 0 0 -131 0 -130 53 3 52 3 3 128 3 127 165
0 165 0 -3 53 -3 52 -46 3 -46 3 38 152 c21 83 37 152 36 153 -4 4 -695 10
-706 6z"/>
<path d="M4042 7278 c-18 -18 -14 -27 8 -21 21 6 26 18 12 27 -5 3 -14 0 -20
-6z"/>
<path d="M3220 7010 l0 -140 368 2 367 3 3 48 3 47 -108 1 c-155 2 -517 8
-523 8 -3 1 -6 38 -5 84 l0 82 -52 3 -53 3 0 -141z"/>
<path d="M4230 7143 c0 -9 -21 -13 -69 -13 -81 0 -92 -9 -84 -68 l6 -42 163 0
164 0 0 -75 0 -75 55 0 55 0 0 75 0 75 166 0 165 0 -3 53 -3 52 -300 3 c-224
2 -301 5 -307 15 -6 9 -8 9 -8 0z"/>
<path d="M3095 7080 c-3 -5 -1 -10 4 -10 6 0 11 5 11 10 0 6 -2 10 -4 10 -3 0
-8 -4 -11 -10z"/>
<path d="M5927 7083 l-28 -4 3 -92 3 -92 365 0 365 0 0 45 0 45 -315 5 -315 5
-5 45 c-5 48 -13 52 -73 43z"/>
<path d="M2080 6910 c0 -5 7 -7 15 -4 9 4 15 0 15 -9 0 -9 5 -19 10 -22 6 -4
10 5 10 19 0 21 -5 26 -25 26 -14 0 -25 -4 -25 -10z"/>
<path d="M2150 6690 c0 -5 5 -10 10 -10 6 0 10 5 10 10 0 6 -4 10 -10 10 -5 0
-10 -4 -10 -10z"/>
<path d="M1175 6651 c-34 -11 -75 -34 -75 -42 0 -4 -19 -10 -42 -12 -41 -3
-41 -4 10 -5 28 -1 52 2 52 7 0 15 60 25 138 22 60 -2 72 0 72 13 0 12 -11 16
-42 17 -24 0 -54 2 -68 3 -14 2 -34 0 -45 -3z"/>
<path d="M1530 6625 c0 -9 -9 -15 -25 -15 -43 0 -26 -50 21 -63 10 -3 -6 -5
-36 -4 -46 0 -55 -2 -54 -16 1 -9 -2 -17 -7 -17 -5 0 -9 -8 -9 -19 0 -14 -10
-21 -35 -25 -19 -4 -35 -11 -35 -16 0 -6 -9 -10 -20 -10 -11 0 -20 4 -20 9 0
5 -3 17 -7 26 -5 15 -1 16 23 11 24 -5 35 -2 52 17 33 35 22 74 -24 83 -19 3
-41 4 -49 1 -8 -4 -22 1 -30 10 -9 8 -19 12 -23 9 -3 -4 -1 -11 6 -15 14 -8 6
-71 -9 -71 -5 0 -9 -13 -9 -30 0 -16 5 -30 10 -30 6 0 10 -7 10 -15 0 -8 5
-15 11 -15 14 0 6 -89 -9 -99 -5 -3 -12 -16 -16 -28 -4 -13 -12 -23 -17 -23
-5 0 -9 -7 -9 -15 0 -9 -11 -21 -25 -27 -14 -6 -25 -15 -25 -20 0 -4 -9 -8
-20 -8 -11 0 -20 -5 -20 -11 0 -21 62 0 86 29 13 15 30 35 39 45 8 9 15 23 15
30 0 7 7 22 15 33 8 10 15 34 15 52 0 28 3 32 26 32 14 0 38 6 52 14 15 8 35
17 45 20 9 3 17 14 17 25 0 30 14 37 81 39 31 2 38 6 43 28 4 14 1 41 -6 60
-12 35 -28 46 -28 19z"/>
<path d="M1450 6575 c0 -8 5 -15 10 -15 6 0 10 7 10 15 0 8 -4 15 -10 15 -5 0
-10 -7 -10 -15z"/>
<path d="M1161 5988 c-1 -10 -8 -18 -16 -18 -9 0 -15 -9 -15 -24 0 -45 -13
-86 -26 -86 -8 0 -14 -5 -14 -11 0 -6 16 -9 38 -7 20 2 42 -2 47 -9 18 -21 50
-20 50 2 0 11 8 21 18 23 9 2 17 9 17 15 1 7 7 1 14 -12 l13 -24 5 32 c3 18 1
34 -3 37 -5 2 -6 12 -3 22 5 14 4 15 -5 2 -15 -22 -26 -4 -22 38 3 33 1 35
-14 22 -14 -11 -16 -24 -10 -66 5 -45 4 -52 -12 -56 -27 -7 -43 15 -44 59 0
41 -17 94 -18 61z"/>
<path d="M5140 5853 c-96 -59 -328 -197 -514 -308 l-340 -201 -51 -99 c-29
-55 -65 -125 -82 -155 -16 -30 -54 -100 -83 -155 -29 -55 -73 -138 -98 -185
-147 -277 -192 -363 -192 -366 0 -3 -8 -17 -19 -32 -19 -28 -106 -181 -149
-262 -24 -46 -84 -150 -218 -382 -41 -70 -74 -129 -74 -132 0 -3 -22 -43 -50
-90 -27 -47 -50 -87 -50 -90 0 -2 -36 -65 -80 -140 -44 -74 -80 -137 -80 -140
0 -3 -14 -29 -31 -58 -17 -29 -63 -109 -102 -178 -39 -69 -81 -143 -94 -165
-12 -22 -26 -47 -30 -55 -4 -8 -20 -37 -36 -65 -16 -27 -86 -151 -154 -275
-69 -124 -143 -253 -164 -287 -22 -34 -39 -65 -39 -68 0 -3 -35 -68 -78 -143
-44 -75 -112 -195 -152 -267 -170 -302 -198 -352 -222 -395 -76 -135 -279
-495 -405 -717 -36 -65 -80 -143 -96 -173 -16 -30 -46 -84 -67 -120 -57 -98
-80 -140 -80 -145 0 -3 1789 -5 3975 -5 2186 0 3975 2 3975 4 0 2 -53 102
-118 222 -65 120 -145 269 -177 329 -32 61 -61 115 -65 120 -4 6 -31 55 -60
110 -29 55 -82 154 -118 220 -36 66 -90 167 -120 225 -30 58 -77 146 -105 195
-27 50 -68 124 -90 165 -22 41 -60 113 -85 160 -59 111 -98 185 -190 355 -41
77 -92 172 -112 210 -21 39 -68 126 -105 195 -37 69 -86 159 -108 200 -22 41
-95 176 -162 300 -67 124 -144 268 -172 320 -28 52 -59 111 -70 130 -11 19
-44 80 -73 135 -105 198 -140 264 -158 297 -10 18 -35 62 -54 98 -19 36 -105
193 -190 350 -85 157 -178 330 -208 385 -29 55 -56 105 -60 110 -13 17 -164
297 -223 413 -17 34 -35 62 -40 62 -5 0 -6 -7 -3 -16 3 -8 2 -12 -4 -9 -6 3
-10 12 -10 19 0 8 -7 19 -15 26 -8 7 -15 18 -15 24 1 6 9 1 19 -11 25 -30 31
-29 31 5 0 22 -8 32 -47 53 -91 49 -518 282 -548 299 -17 10 -66 37 -110 60
-86 46 -126 68 -274 149 -52 28 -97 51 -100 50 -3 0 -85 -48 -181 -106z m157
23 c-14 -11 -17 -29 -18 -97 0 -46 -4 -104 -9 -129 -8 -41 -9 -39 -5 19 3 35
5 94 5 132 0 49 4 72 16 84 9 9 19 13 23 10 3 -4 -2 -12 -12 -19z m63 -156
l-6 -95 -2 105 c-1 57 2 100 6 95 4 -6 5 -53 2 -105z m234 20 c-6 -5 -24 21
-24 34 0 6 6 1 14 -10 8 -10 12 -21 10 -24z m23 -12 c-3 -8 -6 -5 -6 6 -1 11
2 17 5 13 3 -3 4 -12 1 -19z m-640 -96 c-8 -26 -23 -78 -32 -117 -10 -38 -22
-74 -27 -80 -7 -7 -8 -3 -5 10 3 11 15 58 27 105 12 47 23 93 26 103 3 9 1 17
-5 17 -5 0 -13 -15 -16 -32 -4 -18 -11 -37 -15 -43 -4 -5 -10 -19 -13 -30 -3
-11 -3 -1 0 23 6 51 23 88 49 107 26 19 30 -1 11 -63z m630 -27 l0 -50 -7 50
c-5 28 -8 64 -8 80 l0 30 8 -30 c4 -16 8 -52 7 -80z m41 -40 c0 -22 -3 -19 -9
15 -10 60 -9 108 2 55 4 -22 8 -53 7 -70z m232 36 c0 -4 -7 -8 -15 -8 -8 0
-15 6 -15 13 0 8 6 11 15 8 8 -4 15 -9 15 -13z m-575 -1 c-3 -5 -12 -10 -18
-10 -7 0 -6 4 3 10 19 12 23 12 15 0z m-35 -15 c0 -8 -4 -15 -10 -15 -5 0 -7
7 -4 15 4 8 8 15 10 15 2 0 4 -7 4 -15z m94 0 c3 -8 1 -15 -4 -15 -6 0 -10 7
-10 15 0 8 2 15 4 15 2 0 6 -7 10 -15z m522 -55 c12 -11 13 -7 9 21 -4 28 -4
30 3 9 5 -14 12 -38 16 -55 7 -29 7 -29 -9 -10 -15 18 -16 18 -11 2 3 -10 6
-26 7 -35 0 -11 2 -12 6 -4 9 23 22 12 33 -30 6 -24 14 -50 19 -58 5 -9 12
-31 16 -50 4 -19 11 -39 15 -45 14 -19 19 -56 7 -51 -7 3 -20 9 -29 12 -10 4
-18 14 -18 23 0 14 2 14 10 1 5 -8 11 -12 14 -10 5 6 -15 89 -26 105 -3 6 -9
27 -13 48 -4 20 -11 37 -16 37 -5 0 -6 -7 -3 -15 4 -8 1 -15 -5 -15 -6 0 -13
12 -17 28 -3 15 -12 45 -20 67 -8 23 -13 50 -13 60 2 18 2 17 6 -2 2 -12 11
-27 19 -33z m-979 -22 c-3 -7 -5 -2 -5 12 0 14 2 19 5 13 2 -7 2 -19 0 -25z
m725 -38 c1 -27 0 -46 -3 -42 -10 11 -18 92 -9 92 4 0 10 -22 12 -50z m-972
35 c0 -3 -4 -13 -10 -23 -9 -17 -21 -45 -55 -127 -13 -31 -19 -36 -24 -23 -6
18 -10 10 -61 -105 -22 -50 -34 -59 -23 -19 3 12 9 22 14 22 5 0 9 7 9 16 0 8
11 40 25 70 14 30 25 59 25 64 0 6 4 10 9 10 5 0 12 15 15 34 4 19 13 39 21
46 19 16 19 0 0 -26 -8 -10 -15 -28 -15 -39 0 -12 7 -5 20 20 11 22 20 47 20
55 0 9 3 20 7 23 8 8 23 9 23 2z m227 -47 c-3 -7 -5 -2 -5 12 0 14 2 19 5 13
2 -7 2 -19 0 -25z m780 10 c-3 -8 -6 -5 -6 6 -1 11 2 17 5 13 3 -3 4 -12 1
-19z m493 -30 c0 -10 34 -90 54 -128 8 -14 17 -40 21 -57 3 -18 10 -33 15 -33
5 0 12 -10 15 -22 7 -24 40 -101 56 -130 14 -26 12 -28 -19 -12 -21 10 -37 32
-57 81 -15 38 -36 87 -47 110 -10 23 -18 46 -18 51 0 5 -7 23 -15 38 -8 16
-18 46 -21 66 -4 21 -10 35 -15 32 -5 -3 -9 -2 -9 3 0 4 -3 19 -7 32 l-6 23
27 -23 c14 -12 26 -27 26 -31z m-1283 -20 c-3 -8 -6 -5 -6 6 -1 11 2 17 5 13
3 -3 4 -12 1 -19z m800 -10 c-3 -7 -5 -2 -5 12 0 14 2 19 5 13 2 -7 2 -19 0
-25z m-757 -8 c0 -5 -4 -10 -10 -10 -5 0 -10 5 -10 10 0 6 5 10 10 10 6 0 10
-4 10 -10z m1010 -35 c0 -13 5 -27 10 -30 6 -3 10 -18 9 -33 l-1 -27 -13 30
c-20 46 -29 99 -16 91 6 -4 11 -18 11 -31z m-1060 -29 c0 -2 -7 -6 -15 -10 -8
-3 -15 -1 -15 4 0 6 7 10 15 10 8 0 15 -2 15 -4z m-578 -88 c-22 -40 -56 -104
-77 -143 -20 -38 -53 -95 -71 -126 -19 -31 -34 -60 -34 -64 0 -11 -42 -67 -46
-62 -5 5 47 104 130 252 12 22 40 72 61 110 34 64 62 105 72 105 2 0 -14 -33
-35 -72z m260 0 c-11 -24 -22 -50 -25 -58 -4 -12 -6 -12 -6 2 -1 27 41 127 47
110 2 -6 -6 -30 -16 -54z m1877 -33 c0 -5 -4 -3 -9 5 -5 8 -9 22 -9 30 0 16
17 -16 18 -35z m30 -55 c0 -10 -3 -8 -9 5 -12 27 -12 43 0 25 5 -8 9 -22 9
-30z m-1992 -12 c-3 -8 -6 -5 -6 6 -1 11 2 17 5 13 3 -3 4 -12 1 -19z m38 -9
c-3 -13 -20 -33 -38 -44 -47 -29 -54 -30 -34 -8 9 11 17 26 17 34 0 12 2 11
10 -1 8 -13 11 -12 24 5 9 11 16 26 16 34 0 8 2 12 5 9 4 -3 3 -16 0 -29z
m2048 -149 c26 -50 42 -88 36 -85 -6 4 -27 42 -48 86 -21 43 -42 84 -48 91 -6
7 -13 24 -17 38 -8 29 2 14 77 -130z m-1129 -2086 c4 -10 1 -14 -6 -12 -15 5
-23 28 -10 28 5 0 13 -7 16 -16z m2035 -364 c0 -11 -3 -10 -14 4 -8 11 -15 27
-15 35 0 11 4 10 15 -5 8 -10 14 -26 14 -34z"/>
<path d="M4576 5381 c-4 -7 -5 -15 -2 -18 9 -9 19 4 14 18 -4 11 -6 11 -12 0z"/>
<path d="M6151 5410 c0 -8 4 -24 9 -35 5 -13 9 -14 9 -5 0 8 -4 24 -9 35 -5
13 -9 14 -9 5z"/>
<path d="M6251 5170 c0 -8 4 -22 9 -30 12 -18 12 -2 0 25 -6 13 -9 15 -9 5z"/>
<path d="M6280 5095 c0 -8 4 -15 10 -15 5 0 7 7 4 15 -4 8 -8 15 -10 15 -2 0
-4 -7 -4 -15z"/>
<path d="M1355 5900 c-11 -17 5 -32 21 -19 8 6 14 15 14 20 0 12 -27 11 -35
-1z"/>
</g>
</svg>
