<?xml version="1.0" standalone="no"?>
<!DOCTYPE svg PUBLIC "-//W3C//DTD SVG 20010904//EN"
 "http://www.w3.org/TR/2001/REC-SVG-20010904/DTD/svg10.dtd">
<svg version="1.0" xmlns="http://www.w3.org/2000/svg"
 width="355.000000pt" height="200.000000pt" viewBox="0 0 355.000000 200.000000"
 preserveAspectRatio="xMidYMid meet">

<g transform="translate(0.000000,200.000000) scale(0.100000,-0.100000)"
fill="#000000" stroke="none">
<path d="M0 1000 l0 -1000 1775 0 1775 0 0 1000 0 1000 -1775 0 -1775 0 0
-1000z m1735 324 c24 -16 25 -20 25 -140 0 -68 -3 -124 -8 -124 -4 0 -18 7
-30 16 -21 14 -22 22 -22 140 0 68 2 124 5 124 3 0 17 -7 30 -16z m115 -214
c0 -77 -2 -140 -5 -140 -3 0 -17 7 -30 16 -24 16 -25 21 -25 125 0 100 2 109
22 123 12 9 26 16 30 16 5 0 8 -63 8 -140z m-180 -3 c0 -81 -1 -83 -30 -100
l-30 -18 0 84 c0 76 2 86 23 100 12 9 25 16 30 16 4 1 7 -36 7 -82z m253 -21
c13 -10 17 -28 17 -79 0 -57 -3 -68 -22 -81 -12 -9 -26 -16 -30 -16 -5 0 -8
43 -8 95 0 99 5 109 43 81z m-623 -266 c0 -5 -12 -11 -27 -11 l-28 -2 28 -4
c54 -8 25 -21 -48 -21 -41 0 -75 4 -75 9 0 5 12 10 28 10 l27 2 -27 4 c-56 9
-26 23 47 23 43 0 75 -4 75 -10z m145 -20 c-4 -19 -3 -30 4 -30 6 0 11 -4 11
-10 0 -5 -12 -10 -26 -10 -15 0 -33 -8 -40 -17 -13 -17 -13 -17 -14 0 0 11 -8
17 -25 17 -14 0 -25 5 -25 10 0 6 20 10 45 10 38 0 45 3 45 20 0 17 -7 20 -40
20 -22 0 -40 5 -40 10 0 6 25 10 56 10 l56 0 -7 -30z m45 -25 c0 -52 -1 -55
-25 -55 -14 0 -25 5 -25 10 0 6 7 10 15 10 11 0 15 12 15 45 0 25 5 45 10 45
6 0 10 -25 10 -55z m170 45 c0 -6 -30 -10 -70 -10 -40 0 -70 4 -70 10 0 6 30
10 70 10 40 0 70 -4 70 -10z m200 0 c0 -5 -4 -10 -10 -10 -6 0 -10 -28 -10
-65 0 -37 -4 -65 -10 -65 -6 0 -10 32 -10 75 0 68 2 75 20 75 11 0 20 -4 20
-10z m108 -2 c7 -7 12 -24 12 -38 0 -32 -17 -50 -47 -50 -13 0 -23 -4 -23 -10
0 -6 28 -10 65 -10 37 0 65 -4 65 -10 0 -6 -32 -10 -75 -10 l-75 0 0 28 c1 15
-2 39 -5 53 -12 45 50 80 83 47z m72 -38 c0 -27 -4 -50 -10 -50 -5 0 -10 11
-10 25 0 17 -6 25 -17 25 -16 1 -16 2 1 15 18 14 18 15 2 15 -9 0 -14 5 -11
10 3 6 15 10 26 10 16 0 19 -7 19 -50z m167 15 c-3 -19 -2 -35 4 -35 5 0 9 -4
9 -10 0 -5 -16 -10 -35 -10 -31 0 -35 -3 -35 -25 0 -14 -4 -25 -10 -25 -5 0
-10 11 -10 25 0 22 -4 25 -35 25 -19 0 -35 5 -35 10 0 6 27 10 60 10 33 0 60
2 60 4 0 2 3 11 6 20 5 14 -3 16 -55 16 -56 0 -71 6 -54 23 3 4 35 7 71 7 l65
0 -6 -35z m163 17 c3 -3 0 -6 -6 -9 -6 -2 -9 -16 -6 -32 3 -21 -2 -33 -19 -45
l-23 -16 32 0 32 0 0 60 c0 47 3 60 15 60 12 0 15 -14 15 -70 l0 -70 -80 0
c-47 0 -80 4 -80 10 0 6 11 10 25 10 l25 0 -21 21 c-14 14 -19 29 -16 45 2 13
0 24 -4 24 -5 0 -9 4 -9 9 0 17 103 20 120 3z m-565 -2 c-3 -5 -16 -10 -28
-10 -21 -1 -21 -2 5 -25 17 -14 24 -27 17 -30 -6 -4 -19 1 -30 11 -18 16 -20
16 -39 -1 -11 -10 -23 -15 -27 -11 -4 3 4 16 18 29 l24 22 -23 3 c-44 7 -21
22 34 22 34 0 53 -4 49 -10z m-150 -20 c4 -6 -18 -11 -57 -12 l-63 -2 63 -3
c85 -5 79 -23 -8 -23 -68 0 -70 1 -70 25 0 24 2 25 64 25 36 0 68 -4 71 -10z
m-345 -30 c0 -6 -35 -10 -85 -10 -50 0 -85 4 -85 10 0 6 35 10 85 10 50 0 85
-4 85 -10z m-26 -26 c9 -3 16 -15 16 -25 0 -23 -29 -31 -96 -27 -38 2 -50 7
-52 22 -2 10 2 22 10 27 15 10 99 12 122 3z m76 -14 c0 -18 7 -20 66 -20 41 0
63 -4 59 -10 -3 -5 -37 -10 -76 -10 l-69 0 0 30 c0 17 5 30 10 30 6 0 10 -9
10 -20z m310 5 c0 -10 -11 -15 -35 -15 -24 0 -35 -5 -35 -15 0 -8 -4 -15 -10
-15 -5 0 -10 7 -10 15 0 10 -10 15 -29 15 -30 0 -46 12 -34 24 3 3 39 6 80 6
58 0 73 -3 73 -15z"/>
<path d="M1910 796 c-18 -22 -5 -48 22 -44 17 2 23 10 23 28 0 29 -26 38 -45
16z"/>
<path d="M2290 785 c-17 -20 -5 -45 20 -45 11 0 23 7 26 15 6 15 -11 45 -26
45 -4 0 -13 -7 -20 -15z"/>
</g>
</svg>
